<?xml version="1.0" encoding="utf-8"?>
<!-- Generator: Adobe Illustrator 26.5.0, SVG Export Plug-In . SVG Version: 6.00 Build 0)  -->
<svg version="1.1" id="Layer_1" xmlns="http://www.w3.org/2000/svg" xmlns:xlink="http://www.w3.org/1999/xlink" x="0px" y="0px"
	 viewBox="0 0 4365.35 1133.86" style="enable-background:new 0 0 4365.35 1133.86;" xml:space="preserve">
<style type="text/css">
	.st0{fill:#7B7B7B;}
	.st1{fill:#CE212A;}
	.st2{fill:#7D7D7D;}
	.st3{fill:#7E7E7E;}
	.st4{fill:#818181;}
	.st5{fill:#808080;}
	.st6{fill:#7F7F7F;}
	.st7{fill:#828282;}
	.st8{fill:#878787;}
	.st9{fill:#8A8A8A;}
	.st10{fill:#7C7C7C;}
	.st11{fill:#838383;}
	.st12{fill:#424242;}
	.st13{fill:#0B5D8C;}
	.st14{clip-path:url(#SVGID_00000120545409056206791590000007263764287757740693_);}
	.st15{fill:#FFFFFF;}
	.st16{clip-path:url(#SVGID_00000145745281837574412310000013950581212140968325_);}
	.st17{fill:#17298B;}
	.st18{fill-rule:evenodd;clip-rule:evenodd;fill:#17298B;}
</style>
<g>
	<g>
		<path class="st15" d="M450.42,690.48c-111.81-7.47-230.25-37.09-322.84-126.08C70.18,509.24,34.6,437.7,18.87,358.36
			c-5.73-28.88,40.3-72.48,70.55-70.35c19.35,1.36,15.54,15.63,18.07,26.59c19.37,83.97,62.28,156.47,128.92,207.85
			c109.32,84.29,291.83,118.41,436.26,27.49c5.6-3.52,9.74-9.4,14.45-14.29c16.56-17.17,34.7-30.4,53.81-5.07
			c17.14,22.71,18.84,43.76-6.74,65.87C656.05,664.01,563.95,688.44,450.42,690.48z"/>
		<path class="st15" d="M135.11,253.78c3.23-111.28,43.09-186.22,118.6-243.56c22.11-16.79,39.27-11.05,58.99,2.99
			c20.51,14.59,19.09,26.53,0.53,41.36c-27.6,22.06-54.27,44.39-70.73,77.68c-69.29,140.15-31.49,274.98,102.21,357.7
			c12.28,7.59,20.03,16.65,11.78,29.76c-9.52,15.15-21.69,28.27-43.15,17.98c-77.9-37.35-129.14-98.74-154.36-179.92
			C146.98,319.14,130.4,280.06,135.11,253.78z"/>
		<path class="st15" d="M461.8,57.84c15.34-1.07,40.63,2.2,64.89,14.18c19.91,9.83,25.97,26.59,18.46,44.18
			c-7.66,17.92-23.62,5.58-35.73,2.05c-119.07-34.74-240.44,75.6-217.2,197.46c2.11,11.06,19,26.54-6.27,31.53
			c-20.35,4.02-30.44-7.95-34.39-26.51c-10.01-46.96-8.74-93.92,14.39-136.15C305.67,112.02,359.29,56.67,461.8,57.84z"/>
	</g>
	<g>
		<path class="st15" d="M386.18,268.65h81.61c17.77,0,31.08,4.23,39.94,12.68c8.85,8.45,13.28,20.48,13.28,36.09
			c0,16.04-4.82,28.58-14.47,37.61c-9.65,9.03-24.37,13.55-44.16,13.55h-26.88v58.96h-49.31V268.65z M435.49,336.38h12.03
			c9.46,0,16.11-1.64,19.94-4.93c3.83-3.29,5.74-7.49,5.74-12.63c0-4.99-1.66-9.21-4.98-12.68c-3.32-3.47-9.57-5.2-18.75-5.2h-13.98
			V336.38z"/>
		<path class="st15" d="M535.52,268.65h149.23v39.23h-50.07v119.65h-49.09V307.88h-50.07V268.65z"/>
		<path class="st15" d="M780.77,268.65h81.61c17.77,0,31.08,4.23,39.94,12.68c8.85,8.45,13.28,20.48,13.28,36.09
			c0,16.04-4.82,28.58-14.47,37.61c-9.65,9.03-24.37,13.55-44.16,13.55h-26.88v58.96h-49.31V268.65z M830.08,336.38h12.03
			c9.46,0,16.11-1.64,19.94-4.93c3.83-3.29,5.74-7.49,5.74-12.63c0-4.99-1.66-9.21-4.98-12.68c-3.32-3.47-9.57-5.2-18.75-5.2h-13.98
			V336.38z"/>
		<path class="st15" d="M941.16,268.65h131.57v33.92h-82.36v25.25h76.4v32.4h-76.4v31.32h84.75v35.98H941.16V268.65z"/>
		<path class="st15" d="M1101.55,268.65h49.09V388.4h76.62v39.12h-125.71V268.65z"/>
		<path class="st15" d="M1347.27,401.3h-55.74l-7.74,26.23h-50.13l59.71-158.88h53.55l59.7,158.88h-51.41L1347.27,401.3z
			 M1337.09,366.95l-17.54-57.11l-17.35,57.11H1337.09z"/>
		<path class="st15" d="M1422.56,268.65h45.84l59.82,87.9v-87.9h46.28v158.88h-46.28l-59.5-87.23v87.23h-46.17V268.65z"/>
		<path class="st15" d="M1686.99,369.98v-33.05h75.86v67.73c-14.52,9.9-27.36,16.64-38.53,20.21c-11.16,3.58-24.4,5.36-39.72,5.36
			c-18.86,0-34.23-3.21-46.11-9.65c-11.88-6.43-21.1-16-27.64-28.72c-6.54-12.72-9.81-27.31-9.81-43.78
			c0-17.34,3.58-32.42,10.73-45.25c7.15-12.82,17.63-22.56,31.43-29.21c10.76-5.13,25.25-7.69,43.46-7.69
			c17.56,0,30.69,1.59,39.39,4.77c8.7,3.18,15.93,8.11,21.67,14.79c5.74,6.68,10.06,15.16,12.95,25.41l-47.36,8.45
			c-1.95-6-5.26-10.58-9.92-13.76c-4.66-3.18-10.6-4.77-17.83-4.77c-10.77,0-19.34,3.74-25.74,11.22
			c-6.39,7.48-9.59,19.31-9.59,35.49c0,17.2,3.23,29.48,9.7,36.85c6.46,7.37,15.48,11.05,27.04,11.05c5.49,0,10.73-0.79,15.71-2.38
			c4.99-1.59,10.69-4.3,17.12-8.13v-14.96H1686.99z"/>
		<path class="st15" d="M1793.96,268.65h49.2v158.88h-49.2V268.65z"/>
		<path class="st15" d="M1941.24,268.65h149.23v39.23h-50.07v119.65h-49.09V307.88h-50.07V268.65z"/>
		<path class="st15" d="M2112.58,268.65h131.57v33.92h-82.36v25.25h76.4v32.4h-76.4v31.32h84.75v35.98h-133.95V268.65z"/>
		<path class="st15" d="M2273.19,268.65h49.09v60.04l51.43-60.04H2439l-57.98,59.97l60.58,98.91h-60.46l-33.5-65.34l-25.36,26.57
			v38.77h-49.09V268.65z"/>
		<path class="st15" d="M2458.18,268.65h45.84l59.82,87.9v-87.9h46.28v158.88h-46.28l-59.5-87.23v87.23h-46.17V268.65z"/>
		<path class="st15" d="M2644.69,268.65h49.2v158.88h-49.2V268.65z"/>
		<path class="st15" d="M2729.34,268.65h49.09v60.04l51.43-60.04h65.29l-57.98,59.97l60.58,98.91h-60.46l-33.5-65.34l-25.36,26.57
			v38.77h-49.09V268.65z"/>
		<path class="st15" d="M2989.98,268.65h49.2v158.88h-49.2V268.65z"/>
		<path class="st15" d="M3074.72,268.65h45.84l59.82,87.9v-87.9h46.28v158.88h-46.28l-59.5-87.23v87.23h-46.17V268.65z"/>
		<path class="st15" d="M3259.94,268.65h72.94c14.38,0,25.99,1.95,34.84,5.85c8.85,3.9,16.16,9.5,21.95,16.8
			c5.78,7.3,9.97,15.79,12.57,25.47c2.6,9.68,3.9,19.94,3.9,30.78c0,16.98-1.93,30.15-5.8,39.5c-3.87,9.36-9.23,17.2-16.09,23.52
			c-6.86,6.32-14.23,10.53-22.11,12.63c-10.77,2.89-20.52,4.33-29.26,4.33h-72.94V268.65z M3309.03,304.63v86.81h12.03
			c10.26,0,17.56-1.14,21.89-3.41c4.33-2.28,7.73-6.25,10.19-11.92c2.46-5.67,3.68-14.86,3.68-27.58c0-16.83-2.75-28.36-8.24-34.57
			c-5.49-6.21-14.6-9.32-27.31-9.32H3309.03z"/>
		<path class="st15" d="M3425.75,348.2c0-25.94,7.22-46.13,21.68-60.58c14.45-14.45,34.57-21.68,60.36-21.68
			c26.44,0,46.82,7.1,61.12,21.3c14.31,14.2,21.46,34.08,21.46,59.66c0,18.57-3.13,33.8-9.37,45.68
			c-6.25,11.89-15.28,21.13-27.09,27.74c-11.81,6.61-26.53,9.92-44.16,9.92c-17.92,0-32.75-2.85-44.49-8.56
			c-11.74-5.71-21.26-14.74-28.56-27.09C3429.4,382.23,3425.75,366.77,3425.75,348.2z M3474.84,348.41
			c0,16.04,2.98,27.56,8.94,34.57c5.96,7.01,14.07,10.51,24.33,10.51c10.55,0,18.71-3.43,24.49-10.3
			c5.78-6.86,8.67-19.18,8.67-36.96c0-14.96-3.02-25.88-9.05-32.78c-6.03-6.9-14.22-10.35-24.55-10.35
			c-9.9,0-17.85,3.51-23.84,10.51C3477.84,320.63,3474.84,332.23,3474.84,348.41z"/>
		<path class="st15" d="M3617.14,268.65h45.84l59.82,87.9v-87.9h46.28v158.88h-46.28l-59.5-87.23v87.23h-46.17V268.65z"/>
		<path class="st15" d="M3801.59,268.65h131.57v33.92h-82.36v25.25h76.4v32.4h-76.4v31.32h84.75v35.98h-133.95V268.65z"/>
		<path class="st15" d="M3953.42,374.97l46.71-2.93c1.01,7.59,3.07,13.37,6.18,17.34c5.06,6.43,12.28,9.65,21.67,9.65
			c7.01,0,12.41-1.64,16.2-4.93c3.79-3.29,5.69-7.1,5.69-11.43c0-4.12-1.81-7.8-5.42-11.05c-3.61-3.25-11.99-6.32-25.14-9.21
			c-21.53-4.84-36.88-11.27-46.06-19.29c-9.25-8.02-13.87-18.24-13.87-30.67c0-8.16,2.36-15.88,7.1-23.14
			c4.73-7.26,11.85-12.97,21.35-17.12c9.5-4.15,22.52-6.23,39.07-6.23c20.3,0,35.78,3.78,46.44,11.33
			c10.66,7.55,17,19.56,19.02,36.03l-46.28,2.71c-1.23-7.15-3.81-12.35-7.75-15.61c-3.94-3.25-9.37-4.88-16.31-4.88
			c-5.71,0-10.01,1.21-12.9,3.63c-2.89,2.42-4.33,5.36-4.33,8.83c0,2.53,1.19,4.81,3.58,6.83c2.31,2.1,7.8,4.05,16.47,5.85
			c21.46,4.62,36.83,9.3,46.11,14.03c9.28,4.73,16.04,10.6,20.27,17.61c4.23,7.01,6.34,14.85,6.34,23.52
			c0,10.19-2.82,19.58-8.45,28.18c-5.64,8.6-13.51,15.12-23.63,19.56c-10.12,4.44-22.87,6.66-38.26,6.66
			c-27.02,0-45.73-5.2-56.14-15.61C3960.68,404.23,3954.79,391.01,3953.42,374.97z"/>
		<path class="st15" d="M4124.22,268.65h49.2v158.88h-49.2V268.65z"/>
		<path class="st15" d="M4306.32,401.3h-55.74l-7.74,26.23h-50.13l59.71-158.88h53.55l59.7,158.88h-51.41L4306.32,401.3z
			 M4296.14,366.95l-17.54-57.11l-17.35,57.11H4296.14z"/>
	</g>
	<g>
		<path class="st15" d="M-0.32,794.66h179.01v47.06h-60.06v143.52H59.74V841.73H-0.32V794.66z"/>
		<path class="st15" d="M177.26,916.61c0-21.06,7.11-38.42,21.32-52.07c14.21-13.65,33.41-20.48,57.59-20.48
			c27.65,0,48.53,8.02,62.66,24.05c11.35,12.91,17.03,28.82,17.03,47.71c0,21.23-7.04,38.63-21.12,52.2
			c-14.09,13.56-33.56,20.34-58.44,20.34c-22.19,0-40.13-5.63-53.82-16.9C185.66,957.52,177.26,939.23,177.26,916.61z M230.3,916.47
			c0,12.31,2.49,21.41,7.47,27.3c4.98,5.9,11.25,8.84,18.78,8.84c7.63,0,13.89-2.9,18.79-8.71c4.9-5.81,7.35-15.12,7.35-27.95
			c0-11.96-2.47-20.87-7.41-26.72c-4.94-5.85-11.05-8.78-18.33-8.78c-7.71,0-14.08,2.97-19.11,8.91
			C232.81,895.31,230.3,904.34,230.3,916.47z"/>
		<path class="st15" d="M354.84,916.61c0-21.06,7.11-38.42,21.32-52.07c14.21-13.65,33.41-20.48,57.59-20.48
			c27.65,0,48.53,8.02,62.66,24.05c11.35,12.91,17.03,28.82,17.03,47.71c0,21.23-7.04,38.63-21.12,52.2
			c-14.09,13.56-33.56,20.34-58.44,20.34c-22.19,0-40.13-5.63-53.82-16.9C363.25,957.52,354.84,939.23,354.84,916.61z
			 M407.89,916.47c0,12.31,2.49,21.41,7.47,27.3c4.98,5.9,11.25,8.84,18.78,8.84c7.63,0,13.89-2.9,18.79-8.71
			c4.9-5.81,7.35-15.12,7.35-27.95c0-11.96-2.47-20.87-7.41-26.72c-4.94-5.85-11.05-8.78-18.33-8.78c-7.71,0-14.08,2.97-19.11,8.91
			S407.89,904.34,407.89,916.47z"/>
		<path class="st15" d="M540.75,794.66h53.04v190.58h-53.04V794.66z"/>
		<path class="st15" d="M618.23,946.9l52.52-4.94c2.17,6.24,5.2,10.7,9.1,13.39c3.9,2.69,9.1,4.03,15.6,4.03
			c7.1,0,12.61-1.51,16.51-4.54c3.03-2.25,4.55-5.06,4.55-8.44c0-3.81-1.99-6.75-5.98-8.83c-2.86-1.47-10.45-3.29-22.75-5.45
			c-18.37-3.2-31.13-6.17-38.29-8.89c-7.15-2.73-13.17-7.34-18.07-13.83c-4.9-6.49-7.35-13.9-7.35-22.21
			c0-9.09,2.64-16.93,7.93-23.51c5.29-6.58,12.57-11.49,21.84-14.74c9.27-3.24,21.71-4.87,37.31-4.87c16.46,0,28.62,1.26,36.46,3.77
			c7.85,2.52,14.39,6.42,19.63,11.7c5.24,5.29,9.6,12.44,13.06,21.45l-50.18,4.94c-1.3-4.42-3.47-7.67-6.5-9.75
			c-4.16-2.77-9.19-4.16-15.08-4.16c-5.98,0-10.33,1.06-13.06,3.18c-2.73,2.12-4.09,4.69-4.09,7.72c0,3.38,1.73,5.93,5.2,7.66
			c3.46,1.73,11,3.29,22.62,4.67c17.59,1.99,30.68,4.76,39.26,8.31c8.58,3.55,15.15,8.61,19.7,15.19
			c4.55,6.58,6.82,13.81,6.82,21.69c0,7.96-2.41,15.71-7.21,23.25c-4.81,7.53-12.39,13.53-22.75,17.99
			c-10.36,4.45-24.46,6.69-42.32,6.69c-25.22,0-43.18-3.59-53.89-10.79C628.13,970.39,621.26,960.16,618.23,946.9z"/>
		<path class="st15" d="M790.35,932.73h56.55v43.55c0,16.03-3.34,28.69-10.01,37.96c-6.68,9.27-18.07,17.46-34.19,24.57
			l-12.35-23.14c10.05-4.68,16.96-9.34,20.73-13.98c3.77-4.64,5.87-10.12,6.31-16.45h-27.04V932.73z"/>
		<path class="st15" d="M971.05,794.66h157.82v40.69h-98.8v30.29h91.65v38.87h-91.65v37.57h101.66v43.16H971.05V794.66z"/>
		<path class="st15" d="M1305.29,1037.77h-53.43v-65.91c-5.2,5.46-11.16,9.58-17.88,12.35c-6.72,2.77-14.19,4.16-22.42,4.16
			c-16.82,0-30.73-6.05-41.73-18.14c-11.01-12.09-16.51-29.4-16.51-51.93c0-15.08,2.51-28.38,7.54-39.91
			c5.02-11.53,12-20.13,20.93-25.81c8.93-5.67,18.76-8.51,29.51-8.51c9.27,0,17.81,2.04,25.61,6.11c5.72,3.03,12,8.84,18.85,17.42
			v-20.41h49.53V1037.77z M1252.25,916.61c0-11.87-2.23-20.45-6.7-25.74c-4.46-5.29-10.12-7.93-16.97-7.93
			c-6.33,0-11.63,2.62-15.92,7.86c-4.29,5.24-6.43,14.02-6.43,26.32c0,11.01,2.1,19.05,6.3,24.12c4.2,5.07,9.34,7.61,15.41,7.61
			c7.11,0,12.94-2.64,17.49-7.93C1249.97,935.63,1252.25,927.53,1252.25,916.61z"/>
		<path class="st15" d="M1483,985.25h-49.4v-22.36c-7.37,9.19-14.8,15.73-22.3,19.63c-7.5,3.9-16.71,5.85-27.63,5.85
			c-14.56,0-25.98-4.35-34.25-13.06c-8.28-8.71-12.41-22.12-12.41-40.24v-87.88h53.17v75.92c0,8.67,1.6,14.82,4.81,18.46
			c3.21,3.64,7.71,5.46,13.52,5.46c6.33,0,11.51-2.43,15.53-7.28c4.03-4.85,6.05-13.56,6.05-26.13v-66.43H1483V985.25z"/>
		<path class="st15" d="M1517.07,794.66h52.91v36.01h-52.91V794.66z M1517.07,847.18h52.91v138.06h-52.91V847.18z"/>
		<path class="st15" d="M1604.04,1037.77V847.18h49.53v20.41c6.84-8.58,13.13-14.38,18.85-17.42c7.71-4.07,16.25-6.11,25.61-6.11
			c18.46,0,32.74,7.07,42.84,21.19c10.1,14.13,15.15,31.59,15.15,52.39c0,22.97-5.5,40.49-16.51,52.59
			c-11.01,12.09-24.92,18.14-41.73,18.14c-8.15,0-15.58-1.39-22.3-4.16c-6.72-2.77-12.72-6.89-18.01-12.35v65.91H1604.04z
			 M1657.08,916.61c0,10.92,2.29,19.02,6.89,24.31c4.59,5.29,10.4,7.93,17.42,7.93c6.15,0,11.31-2.54,15.47-7.61
			c4.16-5.07,6.24-13.67,6.24-25.81c0-11.18-2.17-19.39-6.5-24.63c-4.34-5.24-9.62-7.86-15.86-7.86c-6.76,0-12.39,2.64-16.9,7.93
			C1659.33,896.15,1657.08,904.73,1657.08,916.61z"/>
		<path class="st15" d="M1781.75,847.18h49.4v20.15c7.12-8.41,14.3-14.39,21.55-17.94s15.99-5.33,26.23-5.33
			c11.02,0,19.75,1.95,26.17,5.85c6.42,3.9,11.67,9.71,15.75,17.42c8.31-9.01,15.88-15.15,22.72-18.4
			c6.84-3.25,15.28-4.88,25.32-4.88c14.8,0,26.35,4.4,34.66,13.2c8.31,8.8,12.47,22.56,12.47,41.28v86.71h-53.04V906.6
			c0-6.24-1.21-10.88-3.63-13.91c-3.54-4.77-7.95-7.15-13.21-7.15c-6.22,0-11.23,2.26-15.03,6.76c-3.8,4.51-5.7,11.74-5.7,21.71
			v71.24h-53.04v-76.05c0-6.06-0.35-10.18-1.04-12.35c-1.13-3.47-3.09-6.26-5.87-8.39c-2.78-2.12-6.05-3.19-9.78-3.19
			c-6.09,0-11.09,2.3-15,6.89c-3.91,4.6-5.87,12.14-5.87,22.62v70.46h-53.04V847.18z"/>
		<path class="st15" d="M2200.88,929.35h-106.08c0.95,8.49,3.25,14.82,6.89,18.98c5.11,5.98,11.79,8.97,20.02,8.97
			c5.2,0,10.14-1.3,14.82-3.9c2.86-1.64,5.94-4.55,9.23-8.71l52.13,4.81c-7.97,13.87-17.59,23.81-28.86,29.83
			c-11.27,6.02-27.43,9.04-48.49,9.04c-18.29,0-32.68-2.58-43.16-7.74c-10.49-5.15-19.18-13.34-26.07-24.57
			c-6.89-11.22-10.33-24.42-10.33-39.59c0-21.58,6.91-39.04,20.73-52.39c13.82-13.34,32.91-20.02,57.27-20.02
			c19.76,0,35.36,2.99,46.8,8.97c11.44,5.98,20.15,14.65,26.13,26c5.98,11.35,8.97,26.13,8.97,44.33V929.35z M2147.06,903.99
			c-1.04-10.22-3.79-17.55-8.25-21.97c-4.46-4.42-10.33-6.63-17.61-6.63c-8.41,0-15.13,3.34-20.15,10.01
			c-3.21,4.16-5.24,10.36-6.11,18.59H2147.06z"/>
		<path class="st15" d="M2225.19,847.18h49.27v22.49c7.37-9.18,14.82-15.75,22.36-19.69c7.54-3.94,16.73-5.92,27.56-5.92
			c14.65,0,26.11,4.35,34.38,13.07c8.28,8.71,12.42,22.16,12.42,40.37v87.75h-53.17v-75.92c0-8.67-1.6-14.8-4.81-18.4
			c-3.21-3.59-7.71-5.39-13.52-5.39c-6.42,0-11.62,2.43-15.6,7.28c-3.99,4.85-5.98,13.57-5.98,26.13v66.3h-52.91V847.18z"/>
		<path class="st15" d="M2466.6,794.66v52.52h29.12v38.74h-29.12v48.91c0,5.88,0.56,9.77,1.69,11.67c1.73,2.94,4.77,4.41,9.1,4.41
			c3.9,0,9.36-1.12,16.38-3.37l3.9,36.52c-13.09,2.86-25.31,4.29-36.66,4.29c-13.17,0-22.88-1.69-29.12-5.06
			c-6.24-3.38-10.86-8.5-13.84-15.39c-2.99-6.88-4.49-18.03-4.49-33.43v-48.56h-19.5v-38.74h19.5v-25.35L2466.6,794.66z"/>
		<path class="st15" d="M2511.58,946.9l52.52-4.94c2.17,6.24,5.2,10.7,9.1,13.39c3.9,2.69,9.1,4.03,15.6,4.03
			c7.1,0,12.61-1.51,16.51-4.54c3.03-2.25,4.55-5.06,4.55-8.44c0-3.81-1.99-6.75-5.98-8.83c-2.86-1.47-10.45-3.29-22.75-5.45
			c-18.37-3.2-31.13-6.17-38.29-8.89c-7.15-2.73-13.17-7.34-18.07-13.83c-4.9-6.49-7.35-13.9-7.35-22.21
			c0-9.09,2.64-16.93,7.93-23.51c5.29-6.58,12.57-11.49,21.84-14.74c9.27-3.24,21.71-4.87,37.31-4.87c16.46,0,28.62,1.26,36.46,3.77
			c7.84,2.52,14.39,6.42,19.63,11.7c5.24,5.29,9.6,12.44,13.06,21.45l-50.18,4.94c-1.3-4.42-3.47-7.67-6.5-9.75
			c-4.16-2.77-9.19-4.16-15.08-4.16c-5.98,0-10.33,1.06-13.06,3.18c-2.73,2.12-4.09,4.69-4.09,7.72c0,3.38,1.73,5.93,5.2,7.66
			c3.46,1.73,11,3.29,22.62,4.67c17.59,1.99,30.68,4.76,39.26,8.31c8.58,3.55,15.15,8.61,19.7,15.19
			c4.55,6.58,6.82,13.81,6.82,21.69c0,7.96-2.41,15.71-7.21,23.25c-4.81,7.53-12.39,13.53-22.75,17.99
			c-10.36,4.45-24.46,6.69-42.32,6.69c-25.22,0-43.18-3.59-53.89-10.79C2521.48,970.39,2514.62,960.16,2511.58,946.9z"/>
		<path class="st15" d="M2683.71,932.73h56.55v43.55c0,16.03-3.34,28.69-10.01,37.96c-6.68,9.27-18.07,17.46-34.19,24.57
			l-12.35-23.14c10.05-4.68,16.96-9.34,20.73-13.98c3.77-4.64,5.87-10.12,6.31-16.45h-27.04V932.73z"/>
		<path class="st15" d="M2863.89,794.66h77.45l29.87,115.96l29.65-115.96h77.4v190.58h-48.23V839.9l-37.16,145.34h-43.66
			l-37.09-145.34v145.34h-48.23V794.66z"/>
		<path class="st15" d="M3160.55,891.91l-50.57-5.33c1.91-8.84,4.66-15.79,8.26-20.87c3.59-5.07,8.78-9.47,15.53-13.19
			c4.85-2.69,11.53-4.77,20.02-6.24c8.49-1.47,17.68-2.21,27.56-2.21c15.86,0,28.6,0.89,38.22,2.67
			c9.62,1.78,17.64,5.48,24.05,11.11c4.51,3.9,8.06,9.43,10.66,16.58c2.6,7.15,3.9,13.97,3.9,20.47v60.97
			c0,6.5,0.41,11.59,1.23,15.28c0.82,3.69,2.62,8.38,5.4,14.1h-49.66c-1.99-3.55-3.3-6.26-3.9-8.13c-0.61-1.86-1.22-4.79-1.82-8.78
			c-6.94,6.68-13.83,11.44-20.67,14.3c-9.36,3.81-20.24,5.72-32.63,5.72c-16.47,0-28.97-3.81-37.51-11.44
			c-8.54-7.63-12.81-17.03-12.81-28.21c0-10.49,3.08-19.11,9.23-25.87c6.15-6.76,17.5-11.79,34.06-15.08
			c19.85-3.98,32.72-6.78,38.61-8.38c5.89-1.6,12.13-3.71,18.72-6.31c0-6.5-1.34-11.05-4.03-13.65c-2.69-2.6-7.41-3.9-14.17-3.9
			c-8.67,0-15.17,1.39-19.5,4.16C3165.36,881.85,3162.63,885.92,3160.55,891.91z M3206.44,919.73c-7.28,2.6-14.86,4.9-22.75,6.89
			c-10.75,2.86-17.55,5.68-20.41,8.45c-2.95,2.86-4.42,6.11-4.42,9.75c0,4.16,1.45,7.56,4.35,10.21c2.9,2.65,7.17,3.97,12.8,3.97
			c5.89,0,11.37-1.43,16.45-4.29c5.07-2.86,8.67-6.35,10.79-10.47c2.12-4.12,3.19-9.47,3.19-16.06V919.73z"/>
		<path class="st15" d="M3392.87,931.17l50.31,5.72c-2.78,10.49-7.33,19.57-13.65,27.24c-6.33,7.67-14.41,13.63-24.24,17.88
			c-9.84,4.25-22.34,6.37-37.51,6.37c-14.65,0-26.85-1.36-36.6-4.09c-9.75-2.73-18.14-7.14-25.16-13.25
			c-7.02-6.1-12.53-13.27-16.51-21.49c-3.99-8.23-5.98-19.14-5.98-32.73c0-14.2,2.43-26.02,7.28-35.46
			c3.55-6.93,8.41-13.14,14.56-18.64c6.15-5.5,12.48-9.59,18.98-12.28c10.31-4.24,23.53-6.36,39.65-6.36
			c22.53,0,39.72,4.03,51.55,12.09c11.83,8.06,20.13,19.85,24.9,35.36l-49.79,6.63c-1.56-5.89-4.4-10.34-8.51-13.33
			c-4.12-2.99-9.64-4.49-16.57-4.49c-8.76,0-15.84,3.14-21.26,9.41c-5.42,6.27-8.13,15.77-8.13,28.48c0,11.34,2.68,19.94,8.06,25.82
			c5.37,5.88,12.22,8.82,20.54,8.82c6.93,0,12.76-1.78,17.49-5.33C3387,944,3390.53,938.53,3392.87,931.17z"/>
		<path class="st15" d="M3462.94,794.66h52.91v70.2c7.19-7.45,14.34-12.78,21.45-15.99c7.1-3.21,15.51-4.81,25.22-4.81
			c14.38,0,25.72,4.38,33.99,13.13c8.28,8.76,12.42,22.19,12.42,40.3v87.75h-53.17v-75.92c0-8.67-1.6-14.8-4.81-18.4
			c-3.21-3.59-7.71-5.39-13.52-5.39c-6.42,0-11.62,2.43-15.6,7.28c-3.99,4.85-5.98,13.57-5.98,26.13v66.3h-52.91V794.66z"/>
		<path class="st15" d="M3642.48,794.66h52.91v36.01h-52.91V794.66z M3642.48,847.18h52.91v138.06h-52.91V847.18z"/>
		<path class="st15" d="M3729.19,847.18h49.27v22.49c7.37-9.18,14.82-15.75,22.36-19.69c7.54-3.94,16.73-5.92,27.56-5.92
			c14.65,0,26.11,4.35,34.38,13.07c8.28,8.71,12.42,22.16,12.42,40.37v87.75h-53.17v-75.92c0-8.67-1.6-14.8-4.81-18.4
			c-3.21-3.59-7.71-5.39-13.52-5.39c-6.42,0-11.62,2.43-15.6,7.28c-3.99,4.85-5.98,13.57-5.98,26.13v66.3h-52.91V847.18z"/>
		<path class="st15" d="M4060.04,929.35h-106.08c0.95,8.49,3.25,14.82,6.89,18.98c5.11,5.98,11.79,8.97,20.02,8.97
			c5.2,0,10.14-1.3,14.82-3.9c2.86-1.64,5.94-4.55,9.23-8.71l52.13,4.81c-7.97,13.87-17.59,23.81-28.86,29.83
			c-11.27,6.02-27.43,9.04-48.49,9.04c-18.29,0-32.68-2.58-43.16-7.74c-10.49-5.15-19.18-13.34-26.07-24.57
			c-6.89-11.22-10.33-24.42-10.33-39.59c0-21.58,6.91-39.04,20.73-52.39c13.82-13.34,32.91-20.02,57.27-20.02
			c19.76,0,35.36,2.99,46.8,8.97c11.44,5.98,20.15,14.65,26.13,26c5.98,11.35,8.97,26.13,8.97,44.33V929.35z M4006.22,903.99
			c-1.04-10.22-3.79-17.55-8.25-21.97c-4.46-4.42-10.33-6.63-17.61-6.63c-8.41,0-15.13,3.34-20.15,10.01
			c-3.21,4.16-5.24,10.36-6.11,18.59H4006.22z"/>
		<path class="st15" d="M4084.87,847.18h49.53v22.62c4.76-9.79,9.68-16.53,14.75-20.22c5.07-3.68,11.33-5.53,18.79-5.53
			c7.8,0,16.33,2.43,25.61,7.28l-16.38,37.7c-6.24-2.6-11.18-3.9-14.82-3.9c-6.93,0-12.31,2.86-16.12,8.58
			c-5.46,8.06-8.19,23.14-8.19,45.24v46.28h-53.17V847.18z"/>
		<path class="st15" d="M4202.78,847.18h55.83l28.48,91.91l26.45-91.91h52.14L4310.9,994.7c-6.24,16.83-12.61,28.19-19.1,34.09
			c-9.18,8.32-23.17,12.49-41.97,12.49c-7.63,0-19.41-1.04-35.35-3.12l-4.16-36.92c7.62,2.43,16.11,3.64,25.46,3.64
			c6.23,0,11.28-1.43,15.13-4.29c3.85-2.87,7.12-7.99,9.81-15.36L4202.78,847.18z"/>
	</g>
</g>
</svg>
